<svg xmlns="http://www.w3.org/2000/svg" width="631" height="518" viewBox="0 0 631 518" version="1.1">
	<path d="M 175.296 22.533 C 162.714 25.923, 144.069 37.005, 116.500 57.478 C 108.250 63.605, 96.550 71.466, 90.500 74.948 C 66.750 88.615, 45.769 104.970, 41.425 113.200 C 39.488 116.870, 39.541 138.375, 41.519 151.500 C 46.480 184.416, 67.293 235.694, 80.728 248.097 C 85.542 252.542, 88.928 253.072, 92.121 249.879 C 98.012 243.988, 109.755 212.142, 120.421 173.134 C 128.316 144.258, 136.241 126.421, 151.055 104.179 C 169.004 77.229, 190.674 57.556, 222.317 39.484 C 228.817 35.771, 233.767 32.377, 233.317 31.941 C 231.855 30.521, 209.755 23.792, 202.028 22.413 C 192.422 20.699, 181.930 20.746, 175.296 22.533 M 436 22.949 C 427.326 24.794, 408.163 30.725, 406.679 32.023 C 406.228 32.418, 409.763 34.853, 414.535 37.433 C 452.067 57.727, 478.109 83.033, 498.821 119.339 C 508.885 136.980, 513.463 148.906, 521.534 178.500 C 530.884 212.784, 542.411 243.551, 548.224 249.738 C 551.419 253.139, 554.473 252.573, 559.796 247.594 C 568.847 239.128, 580.207 216.344, 589.387 188.243 C 595.762 168.730, 598.853 155.028, 599.999 141.194 C 601.605 121.822, 601.366 117.300, 598.477 112.370 C 593.568 103.994, 574.237 89.089, 550.156 75.112 C 543.367 71.171, 534.304 65.276, 530.015 62.012 C 502.663 41.190, 482.625 28.728, 468.707 23.884 C 458.830 20.446, 449.078 20.167, 436 22.949 M 217.500 155.945 C 214.108 157.334, 211.794 160.719, 210.875 165.638 C 209.235 174.420, 203.765 177.527, 187.312 179.021 C 168.210 180.756, 154.914 186.833, 146.743 197.566 C 138.111 208.902, 136.125 221.488, 137.866 253.832 C 139.134 277.397, 140.679 288.119, 144.139 297.372 C 146.668 304.134, 153.460 312, 156.770 312 C 159.846 312, 160.305 313.540, 157.596 314.774 C 150.708 317.913, 147.854 336.520, 151.943 351.634 C 154.664 361.689, 163.037 378.846, 171.155 391.001 C 174.645 396.226, 179.163 403.876, 181.196 408.001 C 194.023 434.028, 221.391 449.377, 268 456.683 C 277.676 458.200, 285.922 458.487, 320 458.493 C 364.395 458.501, 372.735 457.791, 395.329 452.085 C 427.801 443.884, 450.052 428.323, 459.794 407 C 461.176 403.975, 465.132 397.225, 468.585 392 C 477.412 378.643, 483.374 367.050, 487.099 356 C 489.812 347.950, 490.300 345.050, 490.298 337 C 490.295 330.548, 489.755 326.065, 488.613 323.028 C 486.715 317.978, 483.422 314.018, 481.076 313.963 C 480.209 313.943, 481.750 312.821, 484.500 311.469 C 496.915 305.364, 501.562 288.736, 502.653 246.500 C 503.281 222.226, 502.786 216.846, 498.995 206.715 C 496.227 199.318, 488.043 190.363, 480.292 186.250 C 472.379 182.052, 465.405 180.224, 452.860 179.059 C 437.267 177.612, 430 173.884, 430 167.333 C 430 161.036, 424.685 155, 419.139 155 C 416.161 155, 407.922 162.015, 403.699 168.146 C 398.795 175.266, 394.894 186.610, 394.119 196 L 393.500 203.500 387.500 203.155 C 384.200 202.965, 376.325 201.468, 370 199.829 C 363.675 198.189, 355.238 196.001, 351.251 194.965 C 347.264 193.930, 338.714 192.626, 332.251 192.068 C 314.668 190.549, 301.315 191.969, 277.973 197.841 C 267.263 200.535, 255.965 203.021, 252.866 203.365 L 247.232 203.990 246.560 197.245 C 245.045 182.032, 239.180 169.159, 229.812 160.486 C 223.926 155.037, 221.713 154.221, 217.500 155.945 M 169.500 204 C 169.840 204.550, 170.816 205, 171.669 205 C 174.713 205, 185.213 211.430, 188.701 215.430 C 196.483 224.357, 199.751 237.531, 197.013 248.944 C 194.378 259.929, 182.059 272.773, 172.425 274.580 C 167.101 275.579, 167.324 277, 172.804 277 C 187.181 277, 199.510 271.525, 209.696 260.618 C 213.512 256.532, 218.061 250.320, 219.923 246.652 L 223.276 240.047 218.931 234.273 C 208.627 220.580, 192.669 207.464, 182.718 204.509 C 176.917 202.786, 168.551 202.464, 169.500 204 M 455.667 205.446 C 447.462 208.819, 442.660 212.194, 433.701 220.880 C 424.619 229.686, 418 237.937, 418 240.452 C 418 243.701, 424.235 253.967, 430.034 260.268 C 436.964 267.798, 445.078 272.859, 453.919 275.167 C 461.324 277.100, 475.389 277.646, 471 275.830 C 456.034 269.639, 450.034 264.612, 445.202 254.218 C 442.985 249.451, 442.542 247.087, 442.533 240 C 442.523 232.532, 442.900 230.711, 445.636 225 C 450.502 214.844, 455.905 210.232, 470 204.204 C 472.189 203.268, 471.816 203.130, 467 203.091 C 463.399 203.063, 459.486 203.875, 455.667 205.446 M 7.923 494.923 C 4.286 498.560, 4.250 499.692, 7.750 500.386 C 9.262 500.686, 12.300 501.274, 14.500 501.693 L 18.500 502.455 12.500 503.052 C 5.642 503.734, 3.033 503.283, 5.166 501.785 C 6.227 501.040, 6.193 500.932, 5 501.257 C 4.175 501.482, 3.500 502.154, 3.500 502.750 C 3.500 503.346, 3.163 504.171, 2.750 504.583 C 2.337 504.996, 2 507.258, 2 509.610 C 2 512.801, 2.525 514.255, 4.070 515.337 C 5.578 516.393, 5.782 516.930, 4.820 517.314 C 4.094 517.605, 6.950 517.878, 11.167 517.921 C 16.427 517.975, 18.992 517.608, 19.338 516.750 C 19.741 515.750, 19.858 515.750, 19.921 516.750 C 19.979 517.662, 22.714 518, 30.025 518 C 39.866 518, 40.067 517.953, 41.025 515.435 C 42.584 511.334, 42.164 506.327, 39.848 501.399 C 37.395 496.182, 35.669 495.105, 33.213 497.260 C 30.454 499.681, 27.426 500.218, 26.028 498.534 C 25.338 497.702, 24.346 497.286, 23.824 497.609 C 23.301 497.932, 22.115 497.531, 21.187 496.719 C 19.075 494.869, 13.472 492, 11.973 492 C 11.353 492, 9.531 493.315, 7.923 494.923" stroke="none" fill="black" fill-rule="evenodd"/>
</svg>